<svg xmlns="http://www.w3.org/2000/svg" width="64" height="61" fill="none" viewBox="0 0 64 61">
  <path fill="#fff" d="M36.682 23.879c-1.23-.166-1.762.176-1.66 1.491.1 1.278.022 2.573.022 4.079h13.593v4.641H34.993c.403 3.06-.73 5.96 1.386 8.71 1.62 2.106.706 5.594-1.34 7.287-1.965 1.627-4.867 1.435-6.653-.44-1.89-1.985-2.078-5.033-.67-7.495.572-1.002 1.029-2.288 1.037-3.448.075-11.448.041-22.897.049-34.346.001-2.613.918-4.063 2.677-4.322 1.907-.28 3.452 1.105 3.543 3.307.077 1.85.016 3.707.016 5.682h13.574v4.546h-13.45v5.725h13.5v4.583h-11.98Zm4.401 29.677c1.574.51 3.058.845 4.389 1.537 2.049 1.065 4.013 1.178 5.982-.038 2.255-1.393 4.628-1.838 7.285-1.316v4.286c-1.983.587-3.887.904-5.6 1.712-3.211 1.513-6.354 1.687-9.416-.14-2.409-1.44-4.594-1.468-7.018-.005-3.122 1.883-6.436 1.877-9.557-.017-2.425-1.472-4.612-1.395-7.018.038-3.137 1.868-6.342 1.619-9.593.021-1.584-.778-3.37-1.057-5.35-1.647v-4.238c2.464-.534 4.798-.18 6.984 1.175 2.178 1.35 4.3 1.308 6.501 0 3.35-1.99 6.756-1.939 10.1.043 2.132 1.264 4.13 1.08 6.35.07 1.812-.824 3.86-1.02 5.961-1.48Zm12.798-8.721c-2.951 1.168-5.72 2.381-8.564 3.317-1.068.35-2.31.057-3.557.057v-4.71c3.37.746 6.197-.665 9.082-2.276 3.526-1.97 7.276-1.91 11.032-.529 1.476.542 2.36 1.318 2.072 3.226-.145.961-.026 1.971-.026 3.31-3.11-2.532-6.316-3.522-10.039-2.395Zm-46.328-5.06c2.236.622 4.435.915 6.309 1.935 2.595 1.413 5.145 2.384 8.188 1.785v4.52c-2.975.754-5.944.237-8.55-1.433-4.58-2.934-8.923-3.095-13.463.626 0-1.63-.11-2.995.048-4.32.074-.625.57-1.555 1.034-1.691 2.053-.606 4.163-.973 6.434-1.422Z"/>
</svg>
