<svg xmlns="http://www.w3.org/2000/svg" width="64" height="64" fill="none" viewBox="0 0 64 64">
  <path fill="#fff" d="M16.902.235c5.082 0 9.947-.019 14.81.006 4.336.022 6.565 2.158 6.575 6.279.014 5.538.004 11.076.004 16.749 3.703.334 6.659 1.788 8.198 5.03.606 1.278.897 2.79.927 4.202.11 4.99.007 9.983.059 14.974.026 2.597 1.625 4.594 4.06 5.325 2.24.672 4.905-.023 6.148-1.984.703-1.109 1.215-2.62 1.077-3.877-1.03-9.367-2.102-18.735-3.456-28.064-.845-5.826-4.345-10.174-9.58-13.215-3.15-1.829-3.174-1.79-2.559-5.66C52.762 3.437 59.625 9.558 64 18.239c-.113.23-.137.41-.236.464-3.622 1.99-3.559 1.981-3.031 5.94.953 7.145 1.874 14.296 2.707 21.455.707 6.075-3.69 11.1-9.834 11.402-5.975.294-10.672-4.272-10.692-10.416-.015-4.784.038-9.568-.02-14.352-.036-3.068-1.572-4.62-4.52-4.706v31.49l2.738.261V64H0v-4.226l2.671-.234v-2.238c0-16.64-.002-33.279.002-49.918C2.674 2.153 4.683.24 10.15.235h6.751Zm16.792 55.471V27.903H7.452v31.642h26.242v-3.839ZM10.609 4.703H7.457v18.584h26.126V4.703H10.609Z"/>
</svg>
