<svg xmlns="http://www.w3.org/2000/svg" width="94" height="64" fill="none" viewBox="0 0 94 64">
  <path fill="#fff" d="M25.227 3.9V0H57.16v3.912h-8.99v3.623h9.486a6.351 6.351 0 0 1 4.64 1.648 6.622 6.622 0 0 1 2.148 4.51c.04.53.124 1.055.248 1.57a2.86 2.86 0 0 0 1.034 1.675c.53.414 1.186.621 1.852.584H75.1c.132.057.258.126.379.205v7.366h3.914v-7.366a8.83 8.83 0 0 1 .946-.17h9.651a1.16 1.16 0 0 1 .907.239 1.2 1.2 0 0 1 .453.837c.686 3.006 1.502 6.037 2.176 8.984.284 1.268.439 2.563.462 3.864 0 4.105-.13 8.211 0 12.317a39.722 39.722 0 0 1-1.715 12.534c-.367 1.352-.627 2.73-1.03 4.057-.13.411-.579 1.015-.886 1.015-3.548.072-7.18 0-10.928 0V53.88h-4.022v3.622a6.569 6.569 0 0 1-1.783 4.515A6.304 6.304 0 0 1 69.27 64H35.35a6.98 6.98 0 0 1-2.721-.696 7.11 7.11 0 0 1-2.246-1.72c-2.483-2.51-5.014-4.986-7.462-7.522-.393-.448-.88-.8-1.425-1.03a3.854 3.854 0 0 0-1.721-.298H15.8a6.242 6.242 0 0 1-2.424-.546 6.352 6.352 0 0 1-2.034-1.452A6.502 6.502 0 0 1 10.01 48.6a6.605 6.605 0 0 1-.43-2.496V33.68H4.447v15.13c-2.567-.362-3.016-.87-3.016-3.212V33.522c0-.496 0-1.208-.355-1.462-1.182-.93-1.064-2.15-1.064-3.405C0 25.358 0 22.038 0 18.705a3.657 3.657 0 0 1 .946-2.101c.946-1.1 2.082-2.041 3.383-3.297v16.048h5.25v-8.452a6.694 6.694 0 0 1 1.79-4.666 6.422 6.422 0 0 1 4.48-2.048h1.276c2.638 0 2.815-.181 3.915-2.633a6.424 6.424 0 0 1 2.384-3 6.22 6.22 0 0 1 3.636-1.07h7.31V3.865l-9.143.036Zm46.302 17.655h-3.3c-4.517 0-7.096-2.415-7.687-6.932-.272-2.415-.993-3.067-3.406-3.067H28.053c-2.365 0-2.767.302-3.701 2.548a6.375 6.375 0 0 1-2.17 2.894 6.175 6.175 0 0 1-3.365 1.212c-.84.072-1.703 0-2.555 0-.37-.023-.74.037-1.086.174a2.574 2.574 0 0 0-.916.62 2.641 2.641 0 0 0-.58.954 2.683 2.683 0 0 0-.138 1.114v24.622c-.045.377-.007.759.11 1.12.117.36.311.689.568.964.256.274.57.488.916.624.347.137.72.193 1.09.166 1.278.072 2.555 0 3.832 0a7.048 7.048 0 0 1 2.976.552c.942.397 1.79.995 2.489 1.754 2.519 2.596 5.109 5.132 7.64 7.728.402.436.89.78 1.433 1.009a4.076 4.076 0 0 0 1.713.32H68.24c2.366 0 3.265-.93 3.276-3.297v-6.787h11.898v7.56h3.939a1.188 1.188 0 0 0 .828-.725c.745-3.417 2.07-6.702 1.951-10.324-.142-4.045-.19-8.115 0-12.16.19-4.046-.934-7.825-1.892-11.641-.095-.35-.45-.881-.71-.906-1.336-.084-2.684 0-4.187 0v7.45H71.518l.011-7.546Z"/>
</svg>
