<svg xmlns="http://www.w3.org/2000/svg" width="94" height="52" fill="none" viewBox="0 0 94 52">
  <path fill="#fff" d="M93.212 34.683c.064.41.07.528.096.64.502 2.165 1.085 4.552-.677 5.956-.78.62-2.222.645-2.999.035-1.758-1.38-1.134-3.766-.751-5.969.354-2.041.466-4.17.87-6.188.213-1.068.82-1.982 1.25-2.966.514 1.003 1.228 1.912 1.494 3.03.391 1.645.462 3.438.717 5.462ZM2.716 5.864A650.66 650.66 0 0 1 3.904 0c6.45 3.28 12.695 6.423 18.908 9.685.464.243.89 1.291.994 2.055.165 1.219.044 2.513.044 3.932h11.472V8.394h-6.015V2.043h16.488V8.29h-6.063v7.543c2.672 0 5.206.263 7.7-.07 2.772-.372 4.84.732 6.603 3.767.527.907 1.948 1.599 2.74 1.29 11.017-4.299 22.4-6.931 32.988-14.087L94 12.773c-.856 1.757-1.66 3.404-2.59 5.315l-2.675-3.417c-2.568.957-4.796 2.49-6.615 5.646-5.666 9.82-11.567 19.375-17.316 29.104-1.046 1.77-2.104 2.594-3.824 2.579-13.091-.114-26.183-.062-39.275-.062H19.07c0-6.151-.18-12.123.07-18.06.141-3.339-.725-4.67-2.87-5.67C10.86 25.682 5.534 22.813 0 19.994c.928-4.802 1.802-9.324 2.716-14.13Zm46.966 39.439c3.208 0 6.423.154 9.622-.091 1.013-.078 2.262-.88 2.929-1.934 3.407-5.387 6.661-10.961 9.963-16.477 1.369-2.287 2.723-4.59 4.562-7.694-1.653.527-2.555.72-3.413 1.102-5.294 2.363-10.643 4.528-15.837 7.263-2.583 1.36-4.419 1.255-6.03-2.014-1.238-2.51-2.974-3.239-5.199-3.168-6.667.214-13.34.077-20.01.077h-2.298v22.936h25.71ZM18.908 14.755c-3.906-2.04-7.811-4.08-11.85-6.188L5.674 15.89l13.396 6.82c0-2.752 0-5.065-.162-7.956Z"/>
</svg>
